<?xml version="1.0" encoding="utf-8"?>
<!-- Generator: Adobe Illustrator 24.0.0, SVG Export Plug-In . SVG Version: 6.00 Build 0)  -->
<svg version="1.1" id="Layer_1" xmlns="http://www.w3.org/2000/svg" xmlns:xlink="http://www.w3.org/1999/xlink" x="0px" y="0px"
	 viewBox="0 0 160.8 30.1" style="enable-background:new 0 0 160.8 30.1;" xml:space="preserve">
<style type="text/css">
	.st0{fill:#020203;}
	.st1{fill:#EA6929;}
</style>
<g>
	<path class="st0" d="M58.3,6.8c0.3-1,1.3-1.8,2.3-1.8c1,0,1.6,0.8,1.3,1.8l-4.1,15.4h9.2c0.9,0,1.4,0.7,1.2,1.6
		c-0.2,0.9-1.2,1.6-2.1,1.6H55.1c-1,0-1.6-0.8-1.3-1.8L58.3,6.8z"/>
	<path class="st0" d="M70.9,21.1L70.9,21.1c0.9-3.4,3.9-5,7.6-5c1.7,0,2.8,0.3,3.9,0.6l0.1-0.4c0.6-2.2-0.4-3.3-2.9-3.3
		c-1.3,0-2.5,0.2-3.5,0.6c-0.2,0.1-0.4,0.1-0.6,0.1c-0.8,0-1.3-0.6-1.1-1.4c0.2-0.6,0.8-1.2,1.3-1.4C77.4,10.3,79,10,81,10
		c2.3,0,3.8,0.6,4.6,1.7c0.8,1.1,0.9,2.7,0.4,4.7l-2,7.5c-0.3,1-1.2,1.7-2.2,1.7c-1,0-1.5-0.7-1.3-1.5l0.2-0.6
		c-1.4,1.2-3.2,2.2-5.6,2.2C72.2,25.8,70.1,24.1,70.9,21.1z M81.7,20l0.3-1c-0.8-0.3-1.9-0.6-3.3-0.6c-2.3,0-3.8,1-4.3,2.5l0,0.1
		c-0.4,1.5,0.7,2.3,2.4,2.3C79,23.2,81.2,21.9,81.7,20z"/>
	<path class="st0" d="M92.9,5.9c0.3-1,1.2-1.7,2.2-1.7s1.6,0.8,1.3,1.7l-1.8,6.8c1.6-1.6,3.5-2.9,6-2.9c3.6,0,6.3,2.8,5,7.9l0,0.1
		c-1.4,5.1-5.6,7.9-9.2,7.9c-2.5,0-3.8-1.3-4.5-2.7l-0.2,0.8c-0.3,1-1.2,1.7-2.2,1.7c-1,0-1.5-0.8-1.3-1.7L92.9,5.9z M102,17.9
		L102,17.9c0.8-3-0.7-4.9-3-4.9c-2.4,0-5,2-5.8,4.9l0,0.1c-0.8,2.9,0.8,4.9,3.1,4.9C98.7,22.7,101.2,20.9,102,17.9z"/>
	<path class="st0" d="M107.3,21.1L107.3,21.1c0.9-3.4,3.9-5,7.6-5c1.7,0,2.8,0.3,3.9,0.6l0.1-0.4c0.6-2.2-0.4-3.3-2.9-3.3
		c-1.3,0-2.5,0.2-3.5,0.6c-0.2,0.1-0.4,0.1-0.6,0.1c-0.8,0-1.3-0.6-1.1-1.4c0.2-0.6,0.8-1.2,1.3-1.4c1.6-0.5,3.2-0.9,5.2-0.9
		c2.3,0,3.8,0.6,4.6,1.7c0.8,1.1,0.9,2.7,0.4,4.7l-2,7.5c-0.3,1-1.2,1.7-2.2,1.7c-1,0-1.5-0.7-1.3-1.5l0.2-0.6
		c-1.4,1.2-3.2,2.2-5.6,2.2C108.6,25.8,106.5,24.1,107.3,21.1z M118,20l0.3-1c-0.8-0.3-1.9-0.6-3.3-0.6c-2.3,0-3.8,1-4.3,2.5l0,0.1
		c-0.4,1.5,0.7,2.3,2.4,2.3C115.4,23.2,117.5,21.9,118,20z"/>
	<path class="st0" d="M129.2,6.1c0.3-1,1.3-1.7,2.5-1.7s1.8,0.7,1.5,1.7l0,0.2c-0.3,1-1.3,1.7-2.5,1.7s-1.8-0.7-1.5-1.7L129.2,6.1z
		 M127.9,11.8c0.3-1,1.2-1.8,2.2-1.8s1.6,0.8,1.3,1.8l-3.2,12.1c-0.3,1-1.2,1.7-2.2,1.7c-1,0-1.5-0.8-1.3-1.7L127.9,11.8z"/>
	<path class="st0" d="M137.5,6.1c0.3-1,1.3-1.7,2.5-1.7s1.8,0.7,1.5,1.7l0,0.2c-0.3,1-1.3,1.7-2.5,1.7s-1.8-0.7-1.5-1.7L137.5,6.1z
		 M136.2,11.8c0.3-1,1.2-1.8,2.2-1.8s1.6,0.8,1.3,1.8l-3.2,12.1c-0.3,1-1.2,1.7-2.2,1.7c-1,0-1.5-0.8-1.3-1.7L136.2,11.8z"/>
	<path class="st0" d="M145.8,5.9c0.3-1,1.2-1.7,2.2-1.7s1.6,0.8,1.3,1.7l-3,11.3l8.3-6.4c0.6-0.5,1.1-0.8,1.7-0.8
		c0.9,0,1.3,0.8,1.1,1.6c-0.2,0.6-0.6,1-1.2,1.5l-5,3.7l3,6c0.2,0.4,0.3,0.8,0.2,1.2c-0.3,1-1.2,1.6-2.1,1.6c-0.7,0-1-0.2-1.3-0.8
		l-2.8-5.8l-2.9,2.2l-0.7,2.7c-0.3,1-1.2,1.7-2.2,1.7c-1,0-1.5-0.8-1.3-1.7L145.8,5.9z"/>
</g>
<path class="st1" d="M23.4,22.3L27.2,6c0.4-1.5,1.7-2.6,3.3-2.6h11.9h6c2.2,0,3.8,2,3.3,4.2l-1.4,5.8l-2.4,10.5
	c-0.4,1.5-1.7,2.6-3.3,2.6H26.7C24.6,26.5,22.9,24.4,23.4,22.3z"/>
<g>
	<path class="st0" d="M20.1,9.6H4.6c-0.9,0-1.7-0.7-1.7-1.7s0.7-1.7,1.7-1.7h15.6c0.9,0,1.7,0.7,1.7,1.7S21,9.6,20.1,9.6z"/>
</g>
<g>
	<path class="st0" d="M18.1,16H6.7c-0.9,0-1.7-0.7-1.7-1.7s0.7-1.7,1.7-1.7h11.4c0.9,0,1.7,0.7,1.7,1.7S19,16,18.1,16z"/>
</g>
<g>
	<path class="st0" d="M16.5,22.4h-5.9c-0.9,0-1.7-0.7-1.7-1.7s0.7-1.7,1.7-1.7h5.9c0.9,0,1.7,0.7,1.7,1.7S17.4,22.4,16.5,22.4z"/>
</g>
</svg>
